{
    "asset" : {
        "generator" : "Khronos glTF Blender I/O v1.0.5",
        "version" : "2.0"
    },
    "scene" : 0,
    "scenes" : [
        {
            "name" : "Scene",
            "nodes" : [
                0,
                1,
                8
            ]
        }
    ],
    "nodes" : [
        {
            "name" : "_Hemi_1",
            "translation" : [
                0,
                5.925473690032959,
                0
            ]
        },
        {
            "name" : "_Hemi_2",
            "rotation" : [
                0,
                0,
                -1,
                -1.6292068494294654e-07
            ],
            "translation" : [
                0,
                -7.512454509735107,
                0
            ]
        },
        {
            "mesh" : 0,
            "name" : "black_krinkle"
        },
        {
            "mesh" : 1,
            "name" : "foil_gold",
            "scale" : [
                1,
                0.9954502582550049,
                1
            ]
        },
        {
            "mesh" : 2,
            "name" : "foil_silver",
            "translation" : [
                0.18247772753238678,
                -1.3722976446151733,
                -0.06674268841743469
            ]
        },
        {
            "mesh" : 3,
            "name" : "gold_2"
        },
        {
            "mesh" : 4,
            "name" : "shiny_panel"
        },
        {
            "mesh" : 5,
            "name" : "tex_01",
            "translation" : [
                -1.6763516664505005,
                -1.2169818878173828,
                -0.08873993158340454
            ]
        },
        {
            "children" : [
                2,
                3,
                4,
                5,
                6,
                7
            ],
            "mesh" : 6,
            "name" : "_root"
        }
    ],
    "materials" : [
        {
            "doubleSided" : true,
            "name" : "black_krinkle",
            "pbrMetallicRoughness" : {}
        },
        {
            "doubleSided" : true,
            "name" : "foil_gold",
            "pbrMetallicRoughness" : {}
        },
        {
            "doubleSided" : true,
            "name" : "foil_silver",
            "pbrMetallicRoughness" : {}
        },
        {
            "doubleSided" : true,
            "name" : "shiny_panel",
            "pbrMetallicRoughness" : {}
        },
        {
            "doubleSided" : true,
            "name" : "tex_01",
            "pbrMetallicRoughness" : {}
        }
    ],
    "meshes" : [
        {
            "name" : "Default.008",
            "primitives" : [
                {
                    "attributes" : {
                        "POSITION" : 0,
                        "NORMAL" : 1,
                        "TEXCOORD_0" : 2
                    },
                    "indices" : 3,
                    "material" : 0
                }
            ]
        },
        {
            "name" : "Default.002",
            "primitives" : [
                {
                    "attributes" : {
                        "POSITION" : 4,
                        "NORMAL" : 5,
                        "TEXCOORD_0" : 6
                    },
                    "indices" : 7,
                    "material" : 1
                }
            ]
        },
        {
            "name" : "Default.001",
            "primitives" : [
                {
                    "attributes" : {
                        "POSITION" : 8,
                        "NORMAL" : 9,
                        "TEXCOORD_0" : 10
                    },
                    "indices" : 11,
                    "material" : 2
                }
            ]
        },
        {
            "name" : "Default.000",
            "primitives" : [
                {
                    "attributes" : {
                        "POSITION" : 12,
                        "NORMAL" : 13,
                        "TEXCOORD_0" : 14
                    },
                    "indices" : 15,
                    "material" : 1
                }
            ]
        },
        {
            "name" : "Default.005",
            "primitives" : [
                {
                    "attributes" : {
                        "POSITION" : 16,
                        "NORMAL" : 17,
                        "TEXCOORD_0" : 18
                    },
                    "indices" : 19,
                    "material" : 3
                }
            ]
        },
        {
            "name" : "Default.006",
            "primitives" : [
                {
                    "attributes" : {
                        "POSITION" : 20,
                        "NORMAL" : 21,
                        "TEXCOORD_0" : 22
                    },
                    "indices" : 23,
                    "material" : 4
                }
            ]
        },
        {
            "name" : "Cube.004",
            "primitives" : [
                {
                    "attributes" : {
                        "POSITION" : 24,
                        "NORMAL" : 25
                    },
                    "indices" : 26,
                    "material" : 4
                }
            ]
        }
    ],
    "accessors" : [
        {
            "bufferView" : 0,
            "componentType" : 5126,
            "count" : 69,
            "max" : [
                3.3931503295898438,
                0.6977139711380005,
                1.4903500080108643
            ],
            "min" : [
                0.43163201212882996,
                -1.1360502243041992,
                -0.4262300133705139
            ],
            "type" : "VEC3"
        },
        {
            "bufferView" : 1,
            "componentType" : 5126,
            "count" : 69,
            "type" : "VEC3"
        },
        {
            "bufferView" : 2,
            "componentType" : 5126,
            "count" : 69,
            "type" : "VEC2"
        },
        {
            "bufferView" : 3,
            "componentType" : 5123,
            "count" : 204,
            "type" : "SCALAR"
        },
        {
            "bufferView" : 4,
            "componentType" : 5126,
            "count" : 3213,
            "max" : [
                4.453597068786621,
                0.7622730135917664,
                1.2245750427246094
            ],
            "min" : [
                -2.6911699771881104,
                -1.4356600046157837,
                -2.3475213050842285
            ],
            "type" : "VEC3"
        },
        {
            "bufferView" : 5,
            "componentType" : 5126,
            "count" : 3213,
            "type" : "VEC3"
        },
        {
            "bufferView" : 6,
            "componentType" : 5126,
            "count" : 3213,
            "type" : "VEC2"
        },
        {
            "bufferView" : 7,
            "componentType" : 5123,
            "count" : 13902,
            "type" : "SCALAR"
        },
        {
            "bufferView" : 8,
            "componentType" : 5126,
            "count" : 7652,
            "max" : [
                4.286022186279297,
                2.862297534942627,
                1.7286226749420166
            ],
            "min" : [
                -2.708777666091919,
                -0.09524226188659668,
                -1.2783173322677612
            ],
            "type" : "VEC3"
        },
        {
            "bufferView" : 9,
            "componentType" : 5126,
            "count" : 7652,
            "type" : "VEC3"
        },
        {
            "bufferView" : 10,
            "componentType" : 5126,
            "count" : 7652,
            "type" : "VEC2"
        },
        {
            "bufferView" : 11,
            "componentType" : 5123,
            "count" : 19947,
            "type" : "SCALAR"
        },
        {
            "bufferView" : 12,
            "componentType" : 5126,
            "count" : 10192,
            "max" : [
                2.8393399715423584,
                0.6409729719161987,
                -0.8354790210723877
            ],
            "min" : [
                -0.9729670286178589,
                -1.3409700393676758,
                -0.8927050232887268
            ],
            "type" : "VEC3"
        },
        {
            "bufferView" : 13,
            "componentType" : 5126,
            "count" : 10192,
            "type" : "VEC3"
        },
        {
            "bufferView" : 14,
            "componentType" : 5126,
            "count" : 10192,
            "type" : "VEC2"
        },
        {
            "bufferView" : 15,
            "componentType" : 5123,
            "count" : 53982,
            "type" : "SCALAR"
        },
        {
            "bufferView" : 16,
            "componentType" : 5126,
            "count" : 893,
            "max" : [
                0.4004639983177185,
                -3.920949935913086,
                1.8568400144577026
            ],
            "min" : [
                0.3147200047969818,
                -16.287500381469727,
                -3.2223598957061768
            ],
            "type" : "VEC3"
        },
        {
            "bufferView" : 17,
            "componentType" : 5126,
            "count" : 893,
            "type" : "VEC3"
        },
        {
            "bufferView" : 18,
            "componentType" : 5126,
            "count" : 893,
            "type" : "VEC2"
        },
        {
            "bufferView" : 19,
            "componentType" : 5123,
            "count" : 2727,
            "type" : "SCALAR"
        },
        {
            "bufferView" : 20,
            "componentType" : 5126,
            "count" : 17850,
            "max" : [
                6.5707621574401855,
                2.271592140197754,
                1.9455797672271729
            ],
            "min" : [
                -2.827958583831787,
                -15.070518493652344,
                -3.133620023727417
            ],
            "type" : "VEC3"
        },
        {
            "bufferView" : 21,
            "componentType" : 5126,
            "count" : 17850,
            "type" : "VEC3"
        },
        {
            "bufferView" : 22,
            "componentType" : 5126,
            "count" : 17850,
            "type" : "VEC2"
        },
        {
            "bufferView" : 23,
            "componentType" : 5123,
            "count" : 57219,
            "type" : "SCALAR"
        },
        {
            "bufferView" : 24,
            "componentType" : 5126,
            "count" : 8,
            "max" : [
                0.5000002384185791,
                0.5,
                0.5000002980232239
            ],
            "min" : [
                -0.5000001788139343,
                -0.5,
                -0.5000001788139343
            ],
            "type" : "VEC3"
        },
        {
            "bufferView" : 25,
            "componentType" : 5126,
            "count" : 8,
            "type" : "VEC3"
        },
        {
            "bufferView" : 26,
            "componentType" : 5123,
            "count" : 36,
            "type" : "SCALAR"
        }
    ],
    "bufferViews" : [
        {
            "buffer" : 0,
            "byteLength" : 828,
            "byteOffset" : 0
        },
        {
            "buffer" : 0,
            "byteLength" : 828,
            "byteOffset" : 828
        },
        {
            "buffer" : 0,
            "byteLength" : 552,
            "byteOffset" : 1656
        },
        {
            "buffer" : 0,
            "byteLength" : 408,
            "byteOffset" : 2208
        },
        {
            "buffer" : 0,
            "byteLength" : 38556,
            "byteOffset" : 2616
        },
        {
            "buffer" : 0,
            "byteLength" : 38556,
            "byteOffset" : 41172
        },
        {
            "buffer" : 0,
            "byteLength" : 25704,
            "byteOffset" : 79728
        },
        {
            "buffer" : 0,
            "byteLength" : 27804,
            "byteOffset" : 105432
        },
        {
            "buffer" : 0,
            "byteLength" : 91824,
            "byteOffset" : 133236
        },
        {
            "buffer" : 0,
            "byteLength" : 91824,
            "byteOffset" : 225060
        },
        {
            "buffer" : 0,
            "byteLength" : 61216,
            "byteOffset" : 316884
        },
        {
            "buffer" : 0,
            "byteLength" : 39894,
            "byteOffset" : 378100
        },
        {
            "buffer" : 0,
            "byteLength" : 122304,
            "byteOffset" : 417996
        },
        {
            "buffer" : 0,
            "byteLength" : 122304,
            "byteOffset" : 540300
        },
        {
            "buffer" : 0,
            "byteLength" : 81536,
            "byteOffset" : 662604
        },
        {
            "buffer" : 0,
            "byteLength" : 107964,
            "byteOffset" : 744140
        },
        {
            "buffer" : 0,
            "byteLength" : 10716,
            "byteOffset" : 852104
        },
        {
            "buffer" : 0,
            "byteLength" : 10716,
            "byteOffset" : 862820
        },
        {
            "buffer" : 0,
            "byteLength" : 7144,
            "byteOffset" : 873536
        },
        {
            "buffer" : 0,
            "byteLength" : 5454,
            "byteOffset" : 880680
        },
        {
            "buffer" : 0,
            "byteLength" : 214200,
            "byteOffset" : 886136
        },
        {
            "buffer" : 0,
            "byteLength" : 214200,
            "byteOffset" : 1100336
        },
        {
            "buffer" : 0,
            "byteLength" : 142800,
            "byteOffset" : 1314536
        },
        {
            "buffer" : 0,
            "byteLength" : 114438,
            "byteOffset" : 1457336
        },
        {
            "buffer" : 0,
            "byteLength" : 96,
            "byteOffset" : 1571776
        },
        {
            "buffer" : 0,
            "byteLength" : 96,
            "byteOffset" : 1571872
        },
        {
            "buffer" : 0,
            "byteLength" : 72,
            "byteOffset" : 1571968
        }
    ],
    "buffers" : [
        {
            "byteLength" : 1572040,
            "uri" : "data:application/octet-stream;base64,"
        }
    ]
}
